<?xml version="1.0" encoding="utf-8"?>
<!-- Generator: Adobe Illustrator 22.0.1, SVG Export Plug-In . SVG Version: 6.00 Build 0)  -->
<svg version="1.1" id="Calque_1" focusable="false" xmlns="http://www.w3.org/2000/svg" xmlns:xlink="http://www.w3.org/1999/xlink"
	 x="0px" y="0px" viewBox="0 0 512 512" style="enable-background:new 0 0 512 512;" xml:space="preserve">
<style type="text/css">
	.st0{fill:#FFFFFF;stroke:#1D1D1B;stroke-miterlimit:10;}
	.st1{fill:#FFFFFF;}
	.st2{fill:none;stroke:#FFFFFF;stroke-width:13;stroke-miterlimit:10;}
</style>
<rect x="290" y="309.3" class="st0" width="141.3" height="42.7"/>
<g>
	<path class="st1" d="M360.9,455.5c-68.6,0-124.1-55.5-124.1-124.1c0-67.5,53.8-122.3,120.8-124.1c-12.3-24.8-33.4-44.5-59.2-54.9
		v-96c7.8,0,14.2-6.3,14.2-14.2V14c0-7.8-6.3-14.2-14.1-14.2h-84.9c-7.8,0-14.2,6.3-14.2,14.2v28.3c0,7.8,6.3,14.2,14.2,14.2v95.9
		c-41.5,16.8-70.8,57.3-70.8,104.8v198.1c0,31.3,25.4,56.6,56.6,56.6h113.2c31.3,0,56.6-25.4,56.6-56.6v-0.1
		C366.5,455.4,363.7,455.5,360.9,455.5z"/>
	<path class="st2" d="M361.4,206c-69.4,0-125.6,55.8-125.6,124.6s56.2,124.6,125.6,124.6S487,399.4,487,330.6S430.8,206,361.4,206z
		 M294.5,350.7c-3.3,0-6.1-2.7-6.1-6v-28.1c0-3.3,2.7-6,6.1-6h133.8c3.3,0,6.1,2.7,6.1,6v28.1c0,3.3-2.7,6-6.1,6H294.5z"/>
</g>
</svg>
