<?xml version="1.0" encoding="utf-8"?>
<!-- Generator: Adobe Illustrator 22.0.1, SVG Export Plug-In . SVG Version: 6.00 Build 0)  -->
<svg version="1.1" id="Calque_1" focusable="false" xmlns="http://www.w3.org/2000/svg" xmlns:xlink="http://www.w3.org/1999/xlink"
	 x="0px" y="0px" viewBox="0 0 512 512" style="enable-background:new 0 0 512 512;" xml:space="preserve">
<style type="text/css">
	.st0{fill:#1D1D1B;stroke:#1D1D1B;stroke-miterlimit:10;}
	.st1{fill:#1D1D1B;}
	.st2{fill:#FFFFFF;stroke:#1D1D1B;stroke-width:5;stroke-miterlimit:10;}
</style>
<rect x="331.9" y="244.6" class="st0" width="101.1" height="173.5"/>
<path class="st1" d="M298.5-0.2h-84.9c-7.8,0-14.2,6.3-14.2,14.2v28.3c0,7.8,6.3,14.2,14.2,14.2v95.9
	c-41.5,16.8-70.8,57.3-70.8,104.8v198.1c0,31.3,25.4,56.6,56.6,56.6h113.2c31.3,0,56.6-25.4,56.6-56.6V257.2
	c0-47.5-29.3-88-70.8-104.8v-96c7.8,0,14.2-6.3,14.2-14.2V14C312.6,6.2,306.3-0.2,298.5-0.2L298.5-0.2z"/>
<g>
	<path class="st2" d="M361,207.4c-68.5,0-124.1,55.5-124.1,124s55.5,124,124.1,124s124-55.5,124-124S429.5,207.4,361,207.4z
		 M433,345.4c0,3.3-2.7,6-6,6h-46v46c0,3.3-2.7,6-6,6h-28c-3.3,0-6-2.7-6-6v-46h-46c-3.3,0-6-2.7-6-6v-28c0-3.3,2.7-6,6-6h46v-46
		c0-3.3,2.7-6,6-6h28c3.3,0,6,2.7,6,6v46h46c3.3,0,6,2.7,6,6V345.4z"/>
</g>
</svg>
