<?xml version="1.0" encoding="utf-8"?>
<!-- Generator: Adobe Illustrator 22.0.1, SVG Export Plug-In . SVG Version: 6.00 Build 0)  -->
<svg version="1.1" id="Calque_1" focusable="false" xmlns="http://www.w3.org/2000/svg" xmlns:xlink="http://www.w3.org/1999/xlink"
	 x="0px" y="0px" viewBox="0 0 512 512" style="enable-background:new 0 0 512 512;" xml:space="preserve">
<style type="text/css">
	.st0{fill:#1D1D1B;stroke:#1D1D1B;stroke-miterlimit:10;}
	.st1{fill:#1D1D1B;}
	.st2{fill:#FFFFFF;stroke:#1D1D1B;stroke-width:5;stroke-miterlimit:10;}
</style>
<rect x="266.2" y="280.8" class="st0" width="173.5" height="101.1"/>
<path class="st1" d="M298.5-0.2l-84.9,0c-7.8,0-14.2,6.3-14.2,14.2v28.3c0,7.8,6.3,14.2,14.2,14.2v95.9
	c-41.5,16.8-70.8,57.3-70.8,104.8l0,198.1c0,31.3,25.4,56.6,56.6,56.6h113.2c31.3,0,56.6-25.4,56.6-56.6V257.2
	c0-47.5-29.3-88-70.8-104.8V56.4c7.8,0,14.2-6.3,14.2-14.2V14C312.6,6.2,306.3-0.2,298.5-0.2L298.5-0.2z"/>
<g>
	<path class="st2" d="M360.9,207.3c-68.5,0-124.1,55.5-124.1,124.1s55.5,124.1,124.1,124.1S485,399.9,485,331.4
		S429.5,207.3,360.9,207.3z M294.9,351.4c-3.3,0-6-2.7-6-6v-28c0-3.3,2.7-6,6-6H427c3.3,0,6,2.7,6,6v28c0,3.3-2.7,6-6,6H294.9z"/>
</g>
</svg>
